<?xml version="1.0" standalone="no"?>
<!DOCTYPE svg PUBLIC "-//W3C//DTD SVG 20010904//EN"
 "http://www.w3.org/TR/2001/REC-SVG-20010904/DTD/svg10.dtd">
<svg version="1.0" xmlns="http://www.w3.org/2000/svg"
 width="500.000000pt" height="500.000000pt" viewBox="0 0 500.000000 500.000000"
 preserveAspectRatio="xMidYMid meet">

<g transform="translate(0.000000,500.000000) scale(0.100000,-0.100000)"
fill="#000000" stroke="none">
<path d="M122 2498 l3 -2373 2373 -3 2372 -2 0 2375 0 2375 -2375 0 -2375 0 2
-2372z m1541 1108 c114 -19 200 -48 276 -94 182 -110 275 -285 275 -517 0
-123 -13 -191 -55 -281 -54 -116 -159 -219 -292 -285 -54 -28 -57 -31 -46 -52
7 -12 119 -216 250 -454 132 -237 239 -436 239 -442 0 -7 -49 -11 -152 -11
l-153 0 -231 433 c-173 322 -237 433 -251 435 -14 2 -38 38 -80 116 l-59 113
101 6 c277 17 430 147 443 376 11 208 -81 352 -266 413 -61 19 -93 22 -343 26
l-276 4 -6 -54 c-4 -29 -7 -461 -7 -960 l0 -908 -140 0 -140 0 0 1075 0 1075
413 0 c309 0 434 -4 500 -14z m1200 -16 c18 -29 18 -30 -2 -30 -20 0 -21 -6
-23 -227 l-3 -227 -137 214 c-122 190 -138 220 -138 258 l0 42 143 0 143 0 17
-30z m1347 -1045 l0 -1075 -143 0 -143 0 -507 777 -507 777 0 245 0 246 118
-180 c65 -99 293 -449 507 -778 l390 -598 3 830 2 831 140 0 140 0 0 -1075z
m-1506 587 l137 -213 -3 -75 -3 -74 -137 214 -138 213 0 78 c0 43 2 76 4 74 2
-2 65 -100 140 -217z m2 -339 l134 -208 0 -557 0 -558 -140 0 -140 0 0 772 c0
424 3 768 6 765 4 -4 67 -100 140 -214z"/>
</g>
</svg>
